<?xml version="1.0" encoding="UTF-8"?>
<svg xmlns="http://www.w3.org/2000/svg" version="1.1" viewBox="0 0 32 32">
  <defs>
    <style>
      .cls-1 {
        fill: #0f4f78;
      }

      .cls-1, .cls-2, .cls-3 {
        stroke-width: 0px;
      }

      .cls-1, .cls-3 {
        fill-rule: evenodd;
      }

      .cls-2 {
        fill: #fff;
      }

      .cls-3 {
        fill: #3d9ecc;
      }
    </style>
  </defs>
  <g id="Layer_2" data-name="Layer 2">
    <rect class="cls-2" y="0" width="32" height="32"/>
  </g>
  <g id="Layer_1" data-name="Layer 1">
    <g>
      <path class="cls-1" d="M13,23.92c-1.9-1.18-3.77-3.98-3.21-6.42.56-2.44,4.39-4.44,4.8-3.1.56.08.4.62.4.62-.03.48-.06.64.34.64s1.3.7,1.48,1.02-.22.28-.4.14c.4.45.59,1.65.08,1.06-.5-.59-.71-1.15-.71-1.15.03.24-.28.34-.55-.14-.27-.48-1.54-1.05-2.2-.35.36-.17,1.23-.28,1.68.27.15.17-.25.31-.46.03-.21-.28-.88-.35-1.18-.14.32.06.71.22.56.35-.15.13-2.02,0-2.6,1.66-.58,1.65.34,3.98,1.96,5.52"/>
      <path class="cls-3" d="M25.19,22.34c-2.11,3.03-5.61,5.01-9.58,5.01-.03,0-.06,0-.08,0-.02,0-.05,0-.07-.01-4.38,0-9.91-3.9-10.38-9.98,0-4.93,2.47-7,3.44-7.69.96-.69,1.5.21,1.3.35,1.74-.84,1.68.73,1.66.78.9-1.09,3.58-1.15,3.89-.59.31.56-.45.4-.45.4.53.31,1.45.35,1.84,1.14.39.78-1.32.34-1.9-.25-.59-.59-1.23-.52-.77.35.47.88-1.54,0-2.34.18-.8.17-2.32.78-2.69,2.52.34-.84,1.62-1.82,2.44-1.94.82-.11.75.41-.09.64-1.28.36-2.24,1.56-1.47,1,.4-.29.63-.4.75-.15.11.22-.22.54-.59.92-2.81,2.91-.51,7.48,2.83,9.4,3.01,1.73,9.84,1.07,12.25-2.09"/>
      <path class="cls-1" d="M15.84,4.4c6.54,0,11.85,5.31,11.85,11.85s-5.31,11.85-11.85,11.85S3.99,22.8,3.99,16.25,9.3,4.4,15.84,4.4M15.84,3.66c6.95,0,12.59,5.64,12.59,12.59s-5.64,12.59-12.59,12.59S3.25,23.2,3.25,16.25,8.89,3.66,15.84,3.66Z"/>
      <path class="cls-3" d="M11.52,18.94c-.11,1.95,1.01,6.04,7.73,5.56-2.69-.12-5.54-1.59-5.93-3.29-.1-.44-.6-.63-.73-.21-.07-.82-.29-1.6-.6-1.27.03-.74-.47-.97-.47-.79"/>
    </g>
  </g>
</svg>